<svg data-name="Groupe 32" xmlns="http://www.w3.org/2000/svg" width="374" height="72.478" viewBox="0 0 374 72.478"><g data-name="Groupe 8" transform="translate(27.052)"><g data-name="Groupe 6" transform="translate(179.87)"><g data-name="Groupe 5"><path data-name="Tracé 19" d="M184.134,59.686a1.783,1.783,0,0,1-1.224-.354,1.665,1.665,0,0,1-.388-1.258V15.086a1.662,1.662,0,0,1,.388-1.257,1.777,1.777,0,0,1,1.224-.355h4.64a1.668,1.668,0,0,1,1.8,1.418l.451,1.676A14.257,14.257,0,0,1,195.7,13.6a14.9,14.9,0,0,1,5.574-1.1,11.972,11.972,0,0,1,9.894,4.577q3.643,4.576,3.643,12.374a22.524,22.524,0,0,1-1.8,9.346,14.616,14.616,0,0,1-4.9,6.155,12.077,12.077,0,0,1-7.089,2.16,15.072,15.072,0,0,1-5.028-.838,12.065,12.065,0,0,1-4.061-2.321V58.074a1.335,1.335,0,0,1-1.611,1.612Zm14.114-19.658a6.033,6.033,0,0,0,5.318-2.449q1.707-2.449,1.708-7.734,0-5.35-1.677-7.8a6.019,6.019,0,0,0-5.35-2.449,12.279,12.279,0,0,0-6.316,1.74V38.288A11.839,11.839,0,0,0,198.248,40.028Z" transform="translate(-182.522 1.672)" fill="#0099dc"/><path data-name="Tracé 20" d="M218.182,46.334a1.393,1.393,0,0,1-1.612-1.612V15.01a1.667,1.667,0,0,1,.387-1.257,1.78,1.78,0,0,1,1.226-.355h4.64a1.668,1.668,0,0,1,1.8,1.418l.838,3.48a18.428,18.428,0,0,1,4.866-4.028,10.385,10.385,0,0,1,4.867-1.193h.9a1.892,1.892,0,0,1,1.289.355,1.659,1.659,0,0,1,.385,1.256V20.1a1.775,1.775,0,0,1-.354,1.224,1.658,1.658,0,0,1-1.257.387q-.451,0-1.16-.065t-1.8-.063A19.2,19.2,0,0,0,229.59,22a17.819,17.819,0,0,0-3.61,1.063V44.722a1.781,1.781,0,0,1-.354,1.224,1.662,1.662,0,0,1-1.258.388Z" transform="translate(-177.97 1.748)" fill="#0099dc"/><path data-name="Tracé 21" d="M244.077,10.055a5.6,5.6,0,0,1-3.93-1.354,4.723,4.723,0,0,1-1.483-3.673,4.724,4.724,0,0,1,1.483-3.674,6.385,6.385,0,0,1,7.862,0,4.732,4.732,0,0,1,1.483,3.674A4.731,4.731,0,0,1,248.009,8.7,5.605,5.605,0,0,1,244.077,10.055Zm-3.094,38.027a1.393,1.393,0,0,1-1.611-1.612V16.758a1.658,1.658,0,0,1,.387-1.257,1.777,1.777,0,0,1,1.224-.355h6.188a1.758,1.758,0,0,1,1.256.355,1.761,1.761,0,0,1,.356,1.257V46.47a1.775,1.775,0,0,1-.356,1.224,1.655,1.655,0,0,1-1.256.388Z" transform="translate(-175.017)" fill="#0099dc"/><path data-name="Tracé 22" d="M256.239,46.41a1.393,1.393,0,0,1-1.612-1.612V15.086a1.662,1.662,0,0,1,.387-1.257,1.778,1.778,0,0,1,1.226-.355h4.64a1.666,1.666,0,0,1,1.8,1.418l.516,1.74a27.837,27.837,0,0,1,6.156-3.19,17.362,17.362,0,0,1,5.64-.935q5.8,0,8.184,4.125a26.419,26.419,0,0,1,6.188-3.158,18.82,18.82,0,0,1,5.995-.967,9.387,9.387,0,0,1,6.993,2.515,9.569,9.569,0,0,1,2.482,7.024V44.8a1.775,1.775,0,0,1-.355,1.224,1.659,1.659,0,0,1-1.257.388h-6.187a1.394,1.394,0,0,1-1.612-1.612V24.109q0-4.382-3.932-4.383a16.343,16.343,0,0,0-7.025,1.676V44.8a1.775,1.775,0,0,1-.354,1.224,1.658,1.658,0,0,1-1.257.388h-6.188a1.393,1.393,0,0,1-1.611-1.612V24.109q0-4.382-3.93-4.383a15.7,15.7,0,0,0-7.09,1.74V44.8a1.781,1.781,0,0,1-.355,1.224,1.659,1.659,0,0,1-1.257.388Z" transform="translate(-172.883 1.672)" fill="#0099dc"/><path data-name="Tracé 23" d="M320.6,47.376q-7.994,0-12.279-4.382t-4.285-12.568q0-8.378,4.382-13.15T320.6,12.507q5.994,0,9.378,2.9a9.675,9.675,0,0,1,3.383,7.734,8.284,8.284,0,0,1-3.641,7.316q-3.641,2.481-10.73,2.482a25.324,25.324,0,0,1-6.381-.71q.386,4.319,2.61,6.188t6.736,1.869a26.772,26.772,0,0,0,3.513-.226,44,44,0,0,0,4.735-1,2.733,2.733,0,0,1,.388-.1,2.134,2.134,0,0,1,.322-.032q1.1,0,1.1,1.482v2.966a2.673,2.673,0,0,1-.289,1.45,2.38,2.38,0,0,1-1.128.74A27.669,27.669,0,0,1,320.6,47.376Zm-2.127-20.237a8.758,8.758,0,0,0,4.769-1,3.44,3.44,0,0,0,1.482-3.062q0-4.061-4.833-4.061-6.188,0-7.155,7.606A29.263,29.263,0,0,0,318.468,27.138Z" transform="translate(-166.278 1.672)" fill="#0099dc"/></g></g><g data-name="Groupe 7" transform="translate(0 49.495)"><path data-name="Tracé 24" d="M116.1,53.775C104.927,62.019,88.731,66.4,74.784,66.4a74.774,74.774,0,0,1-50.47-19.253c-1.045-.944-.112-2.234,1.145-1.5a101.577,101.577,0,0,0,50.5,13.4,100.468,100.468,0,0,0,38.518-7.882c1.889-.8,3.472,1.245,1.625,2.611Z" transform="translate(-23.862 -43.422)" fill="#0099dc" fill-rule="evenodd"/><path data-name="Tracé 25" d="M110.97,48.7c-1.428-1.83-9.445-.867-13.046-.435-1.091.13-1.26-.823-.277-1.513,6.4-4.492,16.874-3.195,18.091-1.69s-.322,12.023-6.315,17.036c-.923.771-1.8.359-1.39-.659,1.348-3.367,4.367-10.907,2.936-12.738Z" transform="translate(-14.085 -43.659)" fill="#0099dc" fill-rule="evenodd"/></g></g><g data-name="Groupe 9" transform="translate(0 14.533)"><path data-name="Tracé 26" d="M98.171,19.046V14.681a1.077,1.077,0,0,1,1.106-1.1l19.562,0a1.089,1.089,0,0,1,1.128,1.1v3.743c-.007.628-.535,1.447-1.473,2.748L108.36,35.634a21.7,21.7,0,0,1,11.158,2.4,1.994,1.994,0,0,1,1.038,1.7v4.658c0,.641-.7,1.383-1.441,1a22.525,22.525,0,0,0-20.668.04c-.681.362-1.392-.371-1.392-1.014V39.989a5.265,5.265,0,0,1,.728-3l11.739-16.842H99.3a1.088,1.088,0,0,1-1.13-1.1Z" transform="translate(12.975 -12.718)" fill="#252f38" fill-rule="evenodd"/><path data-name="Tracé 27" d="M133.752,19.314c-4.388,0-4.665,5.976-4.665,9.7s-.056,11.7,4.612,11.7c4.611,0,4.832-6.427,4.832-10.346a28.219,28.219,0,0,0-.89-8.1,3.724,3.724,0,0,0-3.889-2.957Zm-.053-6.235c8.831,0,13.609,7.585,13.609,17.225,0,9.319-5.276,16.713-13.609,16.713-8.667,0-13.39-7.587-13.39-17.034,0-9.513,4.777-16.9,13.39-16.9Z" transform="translate(16.083 -12.784)" fill="#252f38" fill-rule="evenodd"/><path data-name="Tracé 28" d="M92.353,46.331a1.269,1.269,0,0,1-1.406.138A15.489,15.489,0,0,1,87.536,42.5c-3.267,3.327-5.581,4.326-9.812,4.326-5.01,0-8.907-3.094-8.907-9.276a10.106,10.106,0,0,1,6.346-9.727c3.229-1.417,7.739-1.674,11.189-2.062,0,0,.288-3.729-.723-5.088a4.169,4.169,0,0,0-3.34-1.546,4.531,4.531,0,0,0-4.764,3.5c-.121.661-.609,1.215-1.122,1.16l-5.7-.618a1.049,1.049,0,0,1-.889-1.245c1.325-7,7.644-9.11,13.308-9.11,2.9,0,6.681.771,8.964,2.962,2.894,2.706,2.617,6.313,2.617,10.244V35.3c0,2.79,1.158,4.012,2.245,5.514a1.124,1.124,0,0,1-.018,1.583c-1.216,1.019-4.578,3.938-4.578,3.938Zm-6-14.51c0,2.321.057,4.251-1.113,6.313a4.832,4.832,0,0,1-4.12,2.7c-2.282,0-3.619-1.739-3.619-4.316,0-5.069,4.548-5.99,8.852-5.99v1.288Z" transform="translate(9.2 -12.819)" fill="#252f38" fill-rule="evenodd"/><path data-name="Tracé 29" d="M23.536,46.331a1.269,1.269,0,0,1-1.406.138A15.489,15.489,0,0,1,18.719,42.5c-3.268,3.327-5.581,4.326-9.812,4.326C3.9,46.831,0,43.737,0,37.555a10.106,10.106,0,0,1,6.346-9.727c3.229-1.417,7.739-1.674,11.189-2.062,0,0,.288-3.729-.723-5.088a4.169,4.169,0,0,0-3.34-1.546,4.531,4.531,0,0,0-4.764,3.5c-.121.661-.609,1.215-1.122,1.16l-5.7-.618A1.049,1.049,0,0,1,1,21.929c1.325-7,7.644-9.11,13.308-9.11,2.9,0,6.681.771,8.964,2.962,2.894,2.706,2.617,6.313,2.617,10.244V35.3c0,2.79,1.157,4.012,2.245,5.514a1.124,1.124,0,0,1-.018,1.583c-1.216,1.019-4.578,3.938-4.578,3.938Zm-6-14.51c0,2.321.056,4.251-1.113,6.313a4.833,4.833,0,0,1-4.12,2.7c-2.282,0-3.619-1.739-3.619-4.316,0-5.069,4.548-5.99,8.852-5.99v1.288Z" transform="translate(0 -12.819)" fill="#252f38" fill-rule="evenodd"/><path data-name="Tracé 30" d="M37.075,29.083c0-3.536-.167-8.419,4.111-8.419,4.222,0,3.666,5.012,3.666,8.419l.006,16.192a1.118,1.118,0,0,0,1.069,1.1h5.944a1.122,1.122,0,0,0,1.147-1.1V29.083c0-1.737-.054-4.306.556-5.85a3.95,3.95,0,0,1,3.556-2.507c1.722,0,3.055.579,3.5,2.637a39.1,39.1,0,0,1,.167,5.719l0,16.192a1.116,1.116,0,0,0,1.067,1.1h5.944a1.123,1.123,0,0,0,1.148-1.1L68.963,26c0-3.279.388-7.005-1.5-9.577a8.79,8.79,0,0,0-15.111,2.314c-1.667-3.856-4-5.656-7.722-5.656-3.665,0-6.388,1.8-7.831,5.656h-.112v-3.9a1.112,1.112,0,0,0-1.112-1.112H30.021a1.112,1.112,0,0,0-1.112,1.112V45.261a1.112,1.112,0,0,0,1.112,1.112h5.942a1.112,1.112,0,0,0,1.112-1.112V29.083Z" transform="translate(3.865 -12.784)" fill="#252f38" fill-rule="evenodd"/><path data-name="Tracé 31" d="M156.216,45.261a1.112,1.112,0,0,1-1.111,1.112h-5.944a1.112,1.112,0,0,1-1.111-1.112V14.835a1.112,1.112,0,0,1,1.111-1.112h5.495a1.1,1.1,0,0,1,1.112.868V19.25h.114c1.668-4.179,4-6.171,8.109-6.171a7.8,7.8,0,0,1,6.945,3.6c1.555,2.442,1.555,6.555,1.555,9.513v19.22a1.129,1.129,0,0,1-1.141.961h-5.965a1.122,1.122,0,0,1-1.059-.961l.009-18.456c0-6.175-2.366-6.357-3.731-6.357a4.072,4.072,0,0,0-3.425,2.4,13.813,13.813,0,0,0-.965,5.831V45.261Z" transform="translate(19.792 -12.784)" fill="#252f38" fill-rule="evenodd"/></g></svg>