<?xml version="1.0" encoding="UTF-8"?> <svg xmlns="http://www.w3.org/2000/svg" width="645" height="180" viewBox="0 0 645 180"><path d="M273.661 36.64c0-.097-.041-.097-.041-.097s-.042 0-.091.097l-4.551 10.302c-.09.139-.048.229-.048.229s.048.048.277.048l6.685.042c.049 0 .069-.042.069-.042s.049-.048 0-.187l-2.3-10.392zM349.234 36.543c-.041-.132-.09-.132-.09-.132s-.049 0-.097.181l-4.546 10.26c-.096.319-.048.367-.048.367s.132.091.229.091l6.733-.048h.09s.049-.042 0-.181l-2.271-10.538z"></path><path d="M214.661 17.542v54.502h218.008V17.542H214.661zm36.341 34.752l-1.293 7.381c-.049.365-.231.646-.231.646s-.197.189-.492.28c-4.441 1.79-9.354 1.186-9.354 1.186-7.97-.855-13.016-5.739-14.646-12.026-2.396-9.422 2.354-16.109 3.515-17.547 2.789-3.347 7.16-5.732 11.461-6.293a23.893 23.893 0 0 1 11.188 1.073s1.834.575 3.205 1.509c.696.464.794.645.794.645s.043.098-.147.814l-1.293 6.75c-.05.281-.218.42-.218.42s-.092.05-.745-.371c-4.132-2.926-8.968-2.576-8.968-2.576-3.676.232-7.976 2.162-9.255 7.031-1.139 4.322.049 7.942 2.621 10.096 1.749 1.537 4.47 2.301 7.33 2.168 3.112-.231 5.601-1.466 5.418-1.375 0 0 .134-.05.281-.091.646-.324.787-.281.787-.281s.141.14.042.561zm36.396 8.489s-.049.049-.147.049l-8.181.049c-.189 0-.323-.098-.323-.098s-.05-.042-.098-.366l-1.279-5.296c0-.112-.084-.162-.084-.162h-11.701c-.232 0-.373.162-.373.162s-.182.141-.323.463l-2.305 4.926c-.092.19-.141.231-.141.231s-.134.091-.253.091h-9.53c-.28.049-.329-.091-.329-.091s-.05-.141.049-.324l16.529-33.151c.069-.19.211-.231.211-.231h10.857c.19 0 .323.141.323.141s.049.048.099.182l7.083 33.242c0 .141-.084.183-.084.183zm36.946.098s-.049.049-.281.049H315.369s-.027-.049-.076-.098l-11.694-20.705c-.092-.091-.133-.091-.133-.091s-.099 0-.099.133l-2.902 20.34c-.05.231-.099.273-.099.273s-.091.049-.232.049h-8.37c-.134 0-.232-.091-.232-.091s-.182-.19-.111-.372l4.574-32.914c.05-.189.148-.232.148-.232s.133-.147.273-.147h9.348c.14 0 .232.1.232.1s.091.048.14.182l10.535 18.459c.182.364.323.322.323.322s.141 0 .23-.42l2.656-18.361c0-.134.086-.182.086-.182s.049-.1.189-.1l8.785.1c.189 0 .238.048.238.048s.042.042.042.134l-4.743 33.193c-.049.191-.133.331-.133.331zm39.313.05s0 .042-.135.042h-8.419c-.182.091-.33-.091-.33-.091s-.043-.049-.093-.33l-1.116-5.198a2.15 2.15 0 0 0-.182-.394s-.232-.14-.514-.14h-10.95c-.21 0-.351.14-.351.14s-.184.162-.281.443L338.8 60.7c-.043.133-.134.182-.134.182s-.19.049-.28.049h-9.488c-.231.042-.303-.098-.303-.098s-.043-.091.071-.281l16.718-33.285c.092-.042.184-.19.184-.19s.098-.042.372-.042h10.352c.231 0 .364.141.364.141s.051.048.101.182l6.95 33.425c-.001.098-.05.148-.05.148zm24.021-.464c-.042.274-.093.365-.093.365s-.049.098-.28.098H368.35c-.546 0-.695-.147-.695-.147s-.091-.183-.048-.597l4.701-32.619c.05-.392.142-.533.142-.533h9.114c.231 0 .303.042.303.042s.049.147 0 .331l-3.535 25.49c-.05.272.091.301.091.301s.091.05.47.05h9.368c.205 0 .275.083.275.083s.049.049.049.28l-.907 6.856zm36.62-13.141c0 .091-.139.231-.139.231s-.043.092-.191.092H412.21c-.188 0-.279.091-.279.091s-.142.049-.142.281v12.53c0 .19-.091.232-.091.232s-.049.098-.189.098h-9.347c-.136 0-.232-.098-.232-.098s-.049-.042-.049-.273V47.971c0-.132-.114-.231-.114-.231s-.068-.091-.189-.091h-12.065c-.231 0-.274-.049-.274-.049s-.092-.091-.092-.372v-9.17c0-.112.092-.232.092-.232s.043-.042.141-.042h12.32c.098 0 .098-.05.098-.05s.085-.048.085-.139V26.614c0-.133.049-.231.049-.231s.097-.05.373-.05h9.162c.185 0 .233.05.233.05s.091.098.091.281v11.022h11.976c.303 0 .395.048.395.048s.139.05.139.324v9.268z"></path><path fill="#EB2230" d="M192.002 92.598l8.833-16.5s-10.499-8.667-26.333-8.667c-15.833 0-31.5 15.166-31.833 29.999-.334 14.834 14.999 22 23.666 24.668 8.667 2.666 15.667 7.334 14 12.666-1.666 5.334-11.833 7.666-19.833 3.666s-10-6.332-10-6.332l-9.598 16.332s12.999 12.223 29.965 12.223 34.633-14.389 34.633-31.223c0-16.832-14.167-22.5-21.833-25.332-7.667-2.834-18.334-4.334-14-13.5 4.333-9.167 22.333 2 22.333 2zM214.661 77.764h8.008v-2.667h30.833v2.667h6.167v17.5h-24v14.166h24v16.5h-23.834v14.168h23.834v16.5h-45.008zM349.169 77.764h20.666v78.834h-20.666zM386.169 77.764h44.833V95.43h-23.667v14h23.667v16.334h-23.667v14.334h23.667v16.5h-44.833zM490.596 94.402l8.833-16.5s-10.5-8.667-26.333-8.667-31.5 15.166-31.833 30c-.334 14.834 14.999 22 23.666 24.666 8.667 2.668 15.666 7.334 14 12.668-1.666 5.332-11.833 7.666-19.833 3.666s-10-6.334-10-6.334l-9.599 16.334s13 12.221 29.966 12.221 34.633-14.389 34.633-31.221c0-16.834-14.167-22.5-21.833-25.334-7.667-2.832-18.334-4.334-14-13.5 4.333-9.165 22.333 2.001 22.333 2.001zM317.169 124.598s17-.334 16.833-23c-.167-22.667-23.5-23.834-23.5-23.834h-34.519v78.834h20.686v-29l19.5 29h25.166l-24.166-32zm-20.334-11.334v-19.5s15.667-3.333 15.834 9.75c.166 13.084-15.834 9.75-15.834 9.75z"></path></svg> 