<svg id="Calque_1" xmlns="http://www.w3.org/2000/svg"
     viewBox="0 0 803.32 437.32">
    <defs>
        <style>.cls-1{fill:#01147b;}.cls-2{fill:url(#radial-gradient);}</style>
        <radialGradient id="radial-gradient" cx="1164.09" cy="573.38" r="1135.2"
                        gradientTransform="translate(240.52 207.65) scale(0.5 0.5)" gradientUnits="userSpaceOnUse">
            <stop offset="0" stop-color="#01147b"/>
            <stop offset="0.03" stop-color="#011098"/>
            <stop offset="0.06" stop-color="#010abd"/>
            <stop offset="0.1" stop-color="#0006da"/>
            <stop offset="0.14" stop-color="#0003ee"/>
            <stop offset="0.18" stop-color="#0001fb"/>
            <stop offset="0.22" stop-color="blue"/>
            <stop offset="1" stop-color="aqua" stop-opacity="0"/>
        </radialGradient>
    </defs>
    <path class="cls-1"
          d="M463.19,575.87l1,.14c7.24,1,14.35,2.29,19.79,4.73,5,2.23,8,5.06,10.7,10.09,4.1,7.64,4.37,18.33.66,26.43-2.77,6-8.85,11.08-14.41,13.76a53.43,53.43,0,0,1-18,4.88,63.84,63.84,0,0,1-34-6.09c-6.07-3-13.47-8.08-17.21-14.67a14.61,14.61,0,0,1,.69-15.69c5.32-7.31,16.73-8.92,25.33-8.62,6.56.26,18.36,2.29,24.58,4.51,1.73.62,8.09,3.1,9.2,4.25a3.06,3.06,0,0,1,.94,3c-1.42,4.37-12,6.66-15,7.13-8.17,1.24-12.41-1.85-21.7-5.53a31.8,31.8,0,0,0-7.73-2.12c-4.21-.4-9.3.77-10.11,5.39-.4,2.38,2.38,4.6,4.5,5.54a34.09,34.09,0,0,0,13.94,3c14.48.24,30.76-2.15,42.61-10.57,1.62-1.15,3.22-2.85,3.23-5,.05-4.33-7.51-7-7.51-7-8-3.34-22.73-5-30.32-5.59-8-.69-20.52-1.72-23.53-2.17a35.07,35.07,0,0,1-9.15-2.28,11.39,11.39,0,0,1-6.12-7c-1.39-5.45.38-12.14,3.4-16.49,7.92-11.41,26.46-15.75,40.32-17.46,13.41-1.68,35.08-1.66,48.25,5.36,2,1.08,3.08,2.11,2.65,4.28a10.61,10.61,0,0,1-7.64,7.89c-3.9,1.24-12,1.73-15.52,2-15.87.89-35.06.42-50.18,4.56-1.19.33-3.24.89-3.9,1.63-2.37,2.58,4.39,3.31,5.84,3.61a6.14,6.14,0,0,0,1,.17l33.42,3.94m-94.46-71s2.58-3.88,4.74-6.82a122.74,122.74,0,0,1,16.44-17.42c1.65-1.4,3.58-3,3.58-3s-3,.31-4.74.66c-4.07.8-10.05,4.78-13,7.35-4.92,4.23-10.34,11.1-7.89,17.2.36.87.91,2,.91,2m27.38,7.35A51.89,51.89,0,0,0,418,505.69c6.66-3.73,16.44-11,15.43-19.57a7.18,7.18,0,0,0-4.41-5.83c-3-1.29-4.51-1.08-8.3,0a25,25,0,0,0-6.6,2.8c-7.63,4.44-18.46,13.95-24.33,21.55-1.36,1.79-2.73,3.79-3.81,5.17-.68.84-1.2,1.62-1.14,1.83.24.86,8.26.77,11.3.57M376.3,526.84c-.8.85-1.65,2.9-2.54,4.39a8.69,8.69,0,0,1-1.92,2.22c-2,1.5-3.73,1.57-5.7-.16a14,14,0,0,1-4.43-9.85,30.12,30.12,0,0,0-.09-4.7c-.49-2.28-2.77-4.61-4-6.78a27,27,0,0,1-2.74-9.91c-.49-9,4.23-17.25,10.37-23.78a68.61,68.61,0,0,1,23.05-15.81c8.31-3.51,20.49-5.9,29.61-2.73a22.52,22.52,0,0,1,9.19,6.21,6.55,6.55,0,0,0,1.26,1.44,9,9,0,0,0,2.3.51,23.12,23.12,0,0,1,8.82,4.19c3.44,3,5.32,5.82,6.19,9.94,1.75,8.3-3,17.41-8.45,23-9.3,9.54-18.48,16.25-30.38,20.92-5.23,2-13.37,4-19.29,3.42-1.84-.16-3.74-.64-5.53-.76a25,25,0,0,1-4.62-1.19c-.44-.34-1-.64-1.11-.52m10.62,18.4a8.39,8.39,0,0,1,1.4.41c4.18,1.59,5.89,5.46,6.92,9.71,2.38,9.86,3.4,31.7,3.79,40.25.29,6.41.45,12.72.72,19.06.22,5.37.66,12.51-.46,17.54a8.28,8.28,0,0,1-3.34,5c-2,1.27-6.49,1.37-9,.85-6.11-1.26-8.09-5.2-9-11.25-2.08-14.44-1.08-42.8.15-54.76.4-3.95,1.89-16.61,3.95-21.91.7-1.8,2.19-5.4,4.8-4.89m-185.78,24s-9.09.65-15.34,1.34c-8,.86-22.92,3.45-31.55,6.54-2.58.93-7.84,3.14-8.3,5.8s1.23,4.93,3.14,7.17c1.1,1.3,7.33,7.31,9.08,8.78,7.33,6.13,22.18,15.58,33.13,20.18,3.75,1.55,10,3.78,10,3.78s-.46-17.74-.37-35.23c0-9.23.24-18.36.24-18.36m166.65,7.07c.52,4.77-.7,13.78-.91,15a70.37,70.37,0,0,1-2.79,9.84c-1.67,3.84-3.31,7-5,10.12a83.56,83.56,0,0,1-14.28,17.55c-15.64,13.56-39.86,21.28-60.64,23.82a154.11,154.11,0,0,1-45.24-1.32c-5.14-.93-12.79-2.7-12.79-2.7a51.69,51.69,0,0,1-.22,5.22,22.08,22.08,0,0,1-1.27,4.42,6.94,6.94,0,0,1-5.46,3.9c-3.13.58-6.45.78-9.34-.46-4.75-2-6.46-6.45-7.28-11.59-.68-4.11-1.38-11.25-1.38-11.25s-3.55-1.69-6.51-3.16a168.83,168.83,0,0,1-25.3-15.54c-2.09-1.57-11.09-9.12-13.08-11-5.56-5.29-10.57-10.57-14.38-17.33-3-5.28-3.82-10-1.57-15.58,3.11-7.8,14.28-13.68,21.91-17,5.62-2.49,23.05-8.2,30.3-9.25,3.42-.49,8.72-1.45,9-1.66a1.85,1.85,0,0,0,.32-.3c.17-.24.45-8,.39-10.79s2.06-21,2.74-24.89c.36-2.08,1.93-10.12,3.54-12.23,1.06-1.42,2.92-1.31,4.44-.37,8.3,5.17,10.83,23.13,11.45,32.27.36,5.57.55,13.94.55,13.94s9.53-.28,15.39-.11a136.49,136.49,0,0,1,17.89,2c7.57,1.21,22.33,4.44,30.79,8.74,7,3.54,13.49,9.51,15.61,15.82,2,5.79,1.67,9.8-1.32,15-3.36,5.9-9.73,10.29-16.17,10.65-1.93.11-9.15-.85-11.37-2.57a2,2,0,0,1-.2-2.77c.24-.3,3.62-2.1,5.61-3.15a12.5,12.5,0,0,0,2.6-1.84c1.66-1.47,3.15-3.07,3-5-.23-2.45-2.82-4-5.28-4.93-11.56-4.6-34.63-8.42-45.78-9.08-4.37-.26-10.57-.48-10.57-.48L226.5,630s5.13,1,9.17,1.64c2.33.35,12.16,1.24,14.77,1.3,19.9.53,42.11-1.25,60.37-9.9,8-3.78,15.37-8.48,20.93-14.86a43.24,43.24,0,0,0,10.17-32c-1.12-13.18-10.36-28.8-17.74-38.31-19.51-25.15-52.94-45.83-82.35-58-30-12.37-59.71-19.49-91.58-20.68-8.21-.31-26.13.11-35.18,2.62-1.29.36-2.59.8-3.8,1.07a10.51,10.51,0,0,0-2.85,1.19,4.63,4.63,0,0,0-.45.44s.56.31,1.09.54c1,.42,5,.67,7.09,1.05,1.86.36,3.81,1.34,4.58,2.72s.83,2.33,0,3.42c-2,2.5-9.78,2.07-13.18,1.54s-7.93-1.65-8.74-4.74c-.94-3.63.79-7.19,2.65-10.48,3.73-6.59,9.08-10,16.92-12.16A171.73,171.73,0,0,1,154,440.8c23.79-.9,46.31,3.27,69.36,10.29a328.54,328.54,0,0,1,43.11,16.81,339.4,339.4,0,0,1,31.4,17.72c2.53,1.67,17.36,12.59,19.66,14.51,4.8,3.94,11.09,9.59,15.63,14.11C342,523,352.93,536.39,358.25,547c1.28,2.55,2.27,5.05,3.92,8a69.84,69.84,0,0,1,3.4,8.81c.4,1.73,1,4.27,1.07,4.37C366.76,569.14,367.88,574.33,367.79,576.34Zm299.1-13.65c-11.14,2.58-40.44,4-40.44,4l-3.69,11.6s14.64-1.26,25.29-.14c0,0,3.45-.4,3.86,3.93a69.06,69.06,0,0,1-.34,8.36s-.23,2.63-3.93,3.29c-4,.68-31.56,1.74-31.56,1.74l-4.46,15.12s-1.66,3.5,2.06,2.5c3.45-.92,32.31-6.35,36.07-5.57,4,1,8.48,6.38,7.2,11.29-1.54,6.08-30.35,24.49-47.89,23.21,0,0-9.21.6-17-11.88-7.25-11.88,2.76-34.37,2.76-34.37s-4.59-10.51-1.27-14.07c0,0,2-1.8,7.75-2.2l7.05-14.64s-8,.55-12.82-5.38c-4.46-5.63-4.83-8.21-1.41-9.76,3.65-1.81,37.14-7.94,60.18-7.16,0,0,8-.79,15,13.14,0,0,3.36,5.63-2.36,7ZM580.22,619c-3,7-10.75,14.4-20.45,9.78s-24.8-35.9-24.8-35.9-5.79-11.65-6.9-11.35c0,0-1.25-2.28-2,10.46s.15,37.42-4.9,41.31c-4.78,3.91-10.57,2.35-13.58-2.21-2.72-4.5-3.86-15.17-2.37-33.92,1.75-18.79,6.1-38.77,11.67-45s10-1.69,11.75-.06c0,0,7.43,6.75,19.68,26.57l2.17,3.67s11.13,18.73,12.3,18.68c0,0,.91.86,1.72.24,1.17-.33.69-6.34.69-6.34S562.88,574.5,552.73,540a16.23,16.23,0,0,1-.5-8.35c1-4.08,5.11-2.17,5.11-2.17s15.74,7.94,23.38,33.64,2.5,48.89-.5,55.9Zm169.46-15.39c-7.17,12.54-27.41,38.78-54.3,32.59-8.88,21.58-16.33,43.42-20.6,76.09,0,0-.94,6.35-6.2,4.15-5.22-1.84-13.81-10.53-15.55-22.56-1.87-15.79,5.15-42.51,19.49-73.13-4.19-6.82-7-16.56-4.6-30.42,0,0,3.61-25.75,29.41-49,0,0,3.09-2.68,4.88-1.86,2,.84,1.06,9.21-.5,13.29s-13.12,24-13.12,24-7.16,13.46-5.15,24.08C697,580,727.73,537.94,746.8,551.21c6.4,4.59,9.36,14.58,9.36,25.35,0,9.45-2.27,19.5-6.48,27Zm-5.57-33s-1.06-8.29-9.15.84c-7,7.71-19.49,22.15-29.59,41.76,10.59-1.19,20.82-6.95,23.9-9.89,5-4.47,16.73-16.59,14.84-32.71Zm153.7-1.89H848.53a388.87,388.87,0,0,0-6.19-50,3.66,3.66,0,0,0-3.6-3H827.38a3.32,3.32,0,0,0-2.56,1.21,3.36,3.36,0,0,0-.71,2.79,360.34,360.34,0,0,1,6.28,49H783a4,4,0,0,0-4,4V583a4,4,0,0,0,4,4h48.09c0,2.54.06,4.81.06,6.94A360.36,360.36,0,0,1,829,634.68a3.74,3.74,0,0,0,3.69,4.13h10.54a4,4,0,0,0,4-3.6,380,380,0,0,0,2.06-41.29c0-2.12,0-4.4-.06-6.94h48.61a4,4,0,0,0,4-4V572.69A4,4,0,0,0,897.81,568.68Z"
          transform="translate(-98.49 -279.57)"/>
    <path class="cls-2"
          d="M835.68,491.55A339,339,0,0,0,238.84,431.2a4,4,0,0,0-.47,3.5,4,4,0,0,0,2.51,2.52l8.83,3a5.22,5.22,0,0,0,1.58.26,4.94,4.94,0,0,0,4.09-2.18,324.7,324.7,0,0,1,113.2-102.57A321.36,321.36,0,0,1,817.45,493.79a4.64,4.64,0,0,0,4.27,2.83h10.55a3.7,3.7,0,0,0,3.41-5.07Z"
          transform="translate(-98.49 -279.57)"/>
</svg>
