<svg width="330" height="178" viewBox="0 0 330 178" fill="none" xmlns="http://www.w3.org/2000/svg">
<g clip-path="url(#clip0)">
<path d="M206.121 112.836C201.329 112.836 196.147 114.403 192.811 115.971C187.167 118.572 183.475 121.244 180.707 124.201C178.08 127.016 176.305 130.08 174.46 133.465H164.237C163.917 133.465 163.669 133.643 163.527 133.892L162.178 136.493C162.036 136.742 162.072 137.027 162.214 137.277C162.356 137.491 162.604 137.669 162.888 137.669H172.578L154.405 176.468C154.263 176.789 154.334 177.109 154.547 177.359L154.902 177.751C155.079 177.929 155.328 178.036 155.612 178L163.03 176.86C163.279 176.824 163.491 176.682 163.598 176.433L183.653 137.669H196.396C196.68 137.669 196.928 137.526 197.07 137.277L198.525 134.64C198.667 134.391 198.667 134.106 198.49 133.857C198.348 133.607 198.099 133.465 197.815 133.465H185.712L189.403 125.804H189.439C190.29 123.987 191.213 122.099 192.775 120.674C193.592 119.926 194.585 119.32 195.65 118.928C197.07 118.429 198.561 118.216 200.052 118.251C201.329 118.251 202.607 118.572 203.85 118.893C205.127 119.213 206.37 119.569 207.683 119.569C208.322 119.569 208.961 119.427 209.493 119.142C210.523 118.608 211.304 117.681 211.694 116.612C211.801 116.327 211.872 116.042 211.872 115.722C211.872 115.401 211.801 115.152 211.694 114.867C211.481 114.439 211.126 114.047 210.7 113.798C210.026 113.406 209.316 113.156 208.571 113.049C207.79 112.907 206.938 112.836 206.121 112.836ZM271.113 129.367C262.133 129.367 253.259 132.182 246.586 136.315C243.249 138.381 240.445 140.768 238.458 143.334C236.47 145.899 235.299 148.607 235.299 151.35C235.299 152.561 235.582 153.773 236.15 154.842C237.038 156.516 238.671 157.977 241.084 159.01C243.498 160.043 246.764 160.649 251.023 160.649C261.885 160.649 270.9 157.015 278.993 152.383C279.384 152.17 279.49 151.671 279.313 151.314C279.242 151.208 279.135 151.101 279.029 151.029L277.325 149.961C277.112 149.818 276.793 149.818 276.544 149.925C269.658 153.345 262.63 155.697 255.744 155.697C252.975 155.697 250.562 155.269 248.964 154.521C248.254 154.236 247.651 153.773 247.154 153.238C246.763 152.775 246.586 152.241 246.586 151.635C246.551 150.246 246.799 148.856 247.296 147.538C253.792 147.182 262.594 146.291 269.906 144.438C273.669 143.476 277.041 142.265 279.526 140.697C280.768 139.913 281.797 139.023 282.578 138.025C283.324 137.027 283.75 135.816 283.75 134.605C283.75 134.07 283.608 133.536 283.359 133.037C282.933 132.218 282.223 131.612 281.336 131.149C280.023 130.436 278.39 130.009 276.58 129.724C274.805 129.51 272.959 129.367 271.113 129.367ZM317.257 129.367C308.277 129.367 299.439 132.182 292.73 136.315C289.393 138.381 286.589 140.768 284.602 143.334C282.614 145.899 281.442 148.607 281.442 151.35C281.442 152.561 281.726 153.773 282.294 154.842C283.182 156.516 284.814 157.977 287.228 159.01C289.642 160.043 292.907 160.649 297.167 160.649C308.028 160.649 317.044 157.015 325.137 152.383C325.528 152.17 325.634 151.671 325.457 151.314C325.386 151.208 325.315 151.101 325.208 151.029L323.504 149.961C323.291 149.818 322.972 149.818 322.723 149.925C315.837 153.345 308.809 155.697 301.923 155.697C299.155 155.697 296.741 155.269 295.144 154.521C294.434 154.236 293.83 153.773 293.333 153.238C292.943 152.811 292.765 152.241 292.765 151.635C292.73 150.246 292.978 148.856 293.475 147.538C299.971 147.182 308.774 146.291 316.086 144.438C319.848 143.476 323.22 142.265 325.705 140.697C326.947 139.913 327.977 139.023 328.758 138.025C329.503 137.027 329.929 135.816 329.929 134.605C329.929 134.07 329.787 133.536 329.539 133.037C329.113 132.218 328.403 131.612 327.515 131.149C326.202 130.436 324.569 130.009 322.759 129.724C320.984 129.51 319.138 129.367 317.257 129.367ZM217.693 130.116C216.06 130.116 214.285 130.543 212.475 131.149C209.742 132.111 206.938 133.536 204.524 134.961C202.572 136.101 200.691 137.348 198.88 138.702C198.525 138.951 198.454 139.486 198.738 139.806C198.809 139.878 198.845 139.913 198.916 139.985L200.513 141.053C200.762 141.232 201.117 141.232 201.365 141.089C202.82 140.127 204.311 139.308 205.873 138.559C206.796 138.132 207.719 137.776 208.677 137.455C209.458 137.206 210.31 137.027 211.162 136.992C211.801 136.992 212.191 137.17 212.404 137.348C212.546 137.455 212.653 137.633 212.688 137.811C212.688 138.025 212.653 138.239 212.582 138.453C212.262 139.415 211.872 140.305 211.339 141.125V141.16L201.755 158.476C201.684 158.583 201.613 158.725 201.542 158.868C201.436 159.046 201.4 159.26 201.4 159.509C201.4 159.652 201.436 159.83 201.507 159.972C201.613 160.15 201.755 160.328 201.933 160.471C202.181 160.649 202.465 160.792 202.785 160.899C203.282 161.077 203.85 161.219 204.382 161.29C204.95 161.397 205.518 161.433 206.086 161.433C207.186 161.433 208.251 161.397 209.067 161.326C209.458 161.29 209.813 161.219 210.168 161.148C210.345 161.112 210.487 161.041 210.629 160.97C210.842 160.863 211.02 160.72 211.126 160.507V160.471L213.327 156.445C215.315 153.274 218.438 148.678 222.094 144.901C223.905 143.013 225.857 141.338 227.845 140.127C229.832 138.951 231.82 138.239 233.701 138.239C235.086 138.239 236.647 138.488 238.209 138.488C239.167 138.524 240.09 138.31 240.942 137.883C241.972 137.384 242.824 136.529 243.391 135.531C243.604 135.103 243.817 134.676 243.924 134.213C244.03 133.821 244.101 133.429 244.101 133.037C244.137 132.218 243.746 131.434 243.072 130.971C242.611 130.65 242.114 130.436 241.546 130.329C240.871 130.187 240.197 130.116 239.558 130.151C237.464 130.151 235.228 130.899 232.956 132.004C229.548 133.678 226.141 136.244 223.195 138.666C221.881 139.735 220.745 140.804 219.716 141.73L222.272 136.956C222.627 136.315 222.911 135.638 223.195 134.997C223.301 134.712 223.408 134.427 223.479 134.142C223.55 133.892 223.585 133.607 223.585 133.358C223.585 132.788 223.408 132.253 223.088 131.79C222.84 131.469 222.52 131.184 222.13 131.006C221.526 130.686 220.887 130.472 220.213 130.365C219.326 130.187 218.509 130.151 217.693 130.116ZM268.309 132.966C269.8 132.966 270.936 133.215 271.61 133.607C271.894 133.75 272.107 133.963 272.32 134.213C272.462 134.427 272.498 134.64 272.498 134.89C272.498 135.602 272.32 136.279 271.965 136.885C271.326 137.989 270.119 139.058 268.451 139.949C265.966 141.303 262.523 142.372 258.761 143.084C255.495 143.726 252.159 144.118 248.822 144.26C249.39 143.405 250.065 142.621 250.774 141.873C253.046 139.486 255.637 137.455 258.477 135.816C261.565 134.177 264.973 132.966 268.309 132.966ZM314.489 132.966C315.979 132.966 317.115 133.215 317.79 133.607C318.074 133.75 318.287 133.963 318.5 134.213C318.642 134.427 318.677 134.64 318.677 134.89C318.677 135.602 318.5 136.279 318.145 136.885C317.506 137.989 316.299 139.058 314.631 139.949C312.146 141.303 308.703 142.372 304.94 143.084C301.675 143.726 298.338 144.118 295.002 144.26C295.57 143.405 296.244 142.621 296.954 141.873C299.226 139.486 301.817 137.455 304.692 135.816C307.744 134.177 311.152 132.966 314.489 132.966Z" fill="#CC0000"/>
<path d="M312.501 9.83373C304.23 4.1688 294.54 0.855347 284.495 0.285291C282.543 0.178405 260.749 -0.64105 245.308 14.0379L244.598 14.6792C244.35 14.4298 244.137 14.216 243.888 14.0379C239.025 9.5487 233.24 6.12836 227.028 3.88377C213.646 -0.819193 198.987 -0.819193 185.605 3.88377C179.393 6.12836 173.608 9.5487 168.745 14.0379C163.917 18.4558 160.119 23.8714 157.457 29.8926C154.653 36.4482 153.233 43.467 153.34 50.5927C153.34 58.2172 154.689 65.0935 157.457 71.2929C160.084 77.3141 163.917 82.6584 168.745 87.1476C173.608 91.6368 179.393 95.0571 185.605 97.3017C198.987 102.005 213.611 102.005 227.028 97.3017C230.968 95.8409 234.766 93.9526 238.316 91.6368C235.192 88.8577 232.388 85.7224 229.974 82.3734C227.49 78.8461 225.395 75.0695 223.692 71.1148C223.337 70.2953 223.053 69.5827 222.875 69.0483C218.829 72.9318 213.291 74.8914 206.37 74.8914C204.134 74.8914 195.402 74.8914 188.977 68.1576C186.847 65.8417 185.215 63.134 184.292 60.2124H230.649C231.359 64.1672 232.459 67.9438 234.127 71.5779C237.109 78.1692 241.581 84.0835 247.154 88.7509C251.626 92.4562 256.738 95.3421 262.204 97.3017C275.586 102.005 290.21 102.005 303.627 97.3017C308.028 95.7697 312.146 93.5963 315.979 90.8886C314.524 89.8197 313.104 88.7152 311.755 87.4682C311.755 87.4682 304.514 80.8057 300.468 71.6135C300.184 71.0079 299.935 70.3666 299.935 70.3666C299.758 69.9034 299.581 69.4758 299.474 69.1196C295.428 73.0031 289.89 74.8914 282.969 74.8914C280.733 74.8914 272.001 74.8914 265.576 68.1576C263.446 65.8417 261.813 63.134 260.891 60.2124H328.509C333.017 40.973 326.734 21.1636 312.501 9.83373ZM184.434 40.5811C185.428 37.8021 186.954 35.2012 189.013 33.0279C193.13 28.5387 198.951 26.2941 206.405 26.2941C208.713 26.2941 217.444 26.2941 223.798 33.0279C225.857 35.2012 227.383 37.7308 228.377 40.5811H184.434ZM260.997 40.5811C261.991 37.7665 263.517 35.2012 265.576 33.0279C271.93 26.2941 280.733 26.2941 282.969 26.2941C285.205 26.2941 294.008 26.2941 300.361 33.0279C302.42 35.2012 303.946 37.7308 304.94 40.5811H260.997Z" fill="black"/>
<path d="M154.937 85.6511C160.865 94.3801 169.384 101.043 179.216 104.748L162.64 122.099C150.003 116.185 138.68 107.883 129.345 97.5867L154.937 85.6511Z" fill="#CC0000"/>
<path d="M178.435 29.6787C175.808 23.6575 171.975 18.3132 167.147 13.824C162.569 9.61986 157.28 6.37767 151.529 4.1687C157.244 6.48455 162.498 9.72675 167.112 13.7884C168.39 14.9641 169.632 16.2824 170.803 17.6363C173.927 21.2348 176.447 25.2964 178.435 29.6787C181.168 35.8781 182.517 42.7544 182.517 50.3789C182.517 54.3336 182.162 58.2171 181.346 62.1006L172.117 57.3264C165.479 59.1435 158.664 60.0342 151.778 59.9273C151.955 59.3929 152.062 58.8584 152.239 58.2171C151.317 61.8869 149.542 65.1647 147.022 67.9437C142.904 72.4329 137.083 74.6775 129.629 74.6775C122.175 74.6775 116.425 72.4329 112.236 67.9437C108.119 63.5258 106.06 57.6827 106.06 50.4858V50.3076C106.06 49.2388 106.131 48.3124 106.166 47.3148C105.918 49.4525 105.741 51.9109 105.705 54.1555V54.4049C105.421 58.4665 102.865 74.82 91.2939 86.2568C91.5424 86.5062 91.7909 86.7556 92.0393 86.9337C96.9022 91.4229 102.688 94.8432 108.9 97.0878C122.281 101.791 136.905 101.791 150.323 97.0878C156.534 94.8432 162.32 91.4229 167.183 86.9337C172.01 82.5158 175.808 77.1002 178.47 71.079C181.239 64.8797 182.588 58.039 182.588 50.3789C182.659 43.2532 181.275 36.1631 178.435 29.6787Z" fill="#CC0000"/>
<path opacity="0.3" d="M178.435 29.643C175.808 23.6218 171.974 18.2775 167.147 13.7884C162.746 9.7267 157.563 6.52014 152.026 4.31117C151.139 3.95488 150.251 3.5986 149.364 3.27794C142.975 1.14023 136.266 0.0357491 129.522 0.0713776C122.423 -0.0355079 115.359 1.14023 108.651 3.5986C102.439 5.77194 96.6533 9.26353 91.7904 13.7527C91.5775 13.9309 91.4 14.1446 91.187 14.3228C89.8737 13.0758 88.4894 11.9357 87.0695 10.8668C83.0231 7.80276 78.5152 5.38002 73.7233 3.63423C73.2264 3.45609 72.6939 3.27794 72.197 3.13543C62.4358 -0.142393 51.6452 -0.783707 41.4936 1.17586C38.37 1.78155 35.3174 2.601 32.3003 3.63423C26.1241 5.87882 20.3383 9.29916 15.4755 13.7884C10.6481 18.2063 6.85013 23.6218 4.18798 29.643C1.38385 36.1987 -0.0359666 43.2175 0.0705194 50.3432C0.0705194 50.4501 0.0705194 50.557 0.0705194 50.6639C0.0705194 51.9465 0.106015 53.1935 0.212501 54.4405C0.212501 54.6186 0.247996 54.7968 0.247996 54.9749C0.283491 55.2599 0.283491 55.5806 0.318987 55.8656C0.815921 61.3168 2.09375 66.3404 4.18798 71.0077C4.64942 72.0766 5.14635 73.1098 5.67878 74.143C7.20508 77.1358 9.05084 79.8792 11.2161 82.4445C11.784 83.1214 12.3519 83.7627 12.9198 84.3684C13.1328 84.5822 13.3813 84.8316 13.6297 85.1166C13.6652 85.1522 13.6652 85.1523 13.7007 85.1879C13.9137 85.4016 14.1622 85.651 14.4106 85.9004C14.5171 86.0073 14.6236 86.1142 14.7301 86.2211C14.8011 86.2924 14.8366 86.328 14.9076 86.3992C15.085 86.5774 15.2625 86.7199 15.44 86.898C20.3029 91.3872 26.0886 94.8076 32.3003 97.0522C35.7078 98.2635 39.1864 99.1186 42.7004 99.7243C44.0492 99.9381 45.398 100.152 46.7469 100.294C52.7811 100.936 58.9218 100.651 64.885 99.4749C67.4406 99.0117 69.9608 98.3348 72.41 97.5153C72.481 97.4797 72.5875 97.4441 72.6584 97.4441C72.7649 97.4085 72.8714 97.3728 72.9779 97.3372C73.2264 97.2659 73.4748 97.159 73.7233 97.0878C79.935 94.8432 85.7207 91.4229 90.5836 86.9337C90.8321 86.6843 91.045 86.4705 91.2935 86.2924C91.542 86.5418 91.7549 86.7555 92.0034 86.9337C96.8663 91.4229 102.652 94.8432 108.864 97.0878C122.245 101.791 136.869 101.791 150.287 97.0878C156.498 94.8432 162.284 91.4229 167.147 86.9337C171.974 82.5157 175.772 77.1002 178.435 71.079C181.203 64.8796 182.552 58.039 182.552 50.3788C182.623 43.2175 181.274 36.1274 178.435 29.643ZM61.8679 73.3236C61.5839 73.4305 61.2645 73.5017 60.9805 73.573C58.5668 74.2499 55.9047 74.5706 52.9585 74.5706C46.8179 74.5706 41.8485 73.0386 37.944 70.0101C37.1276 69.3688 36.3467 68.6562 35.6368 67.8724C33.3296 65.3784 31.6968 62.4569 30.6675 59.1078C30.632 59.0009 30.5965 58.894 30.5965 58.7872C30.561 58.609 30.49 58.4309 30.4545 58.2527C28.2183 49.5594 30.0286 38.5858 35.7788 32.814C39.1509 28.8592 44.7946 26.6502 50.7223 26.1514C51.4677 26.1158 52.2486 26.0802 53.065 26.0802C53.9169 26.0802 54.7688 26.1158 55.5852 26.1871C60.2706 26.579 64.7785 28.0398 68.186 30.5694C68.4345 30.7475 68.6475 30.9257 68.896 31.1394C68.896 31.1394 68.9314 31.1394 68.9314 31.1751C69.4284 31.6026 69.9253 32.0658 70.3867 32.5289C70.8127 32.9921 71.2031 33.4553 71.5581 33.9541C73.1199 35.9493 74.3622 38.2651 75.2141 40.6522C75.6756 42.0418 76.0305 43.5382 76.279 45.0702C76.35 45.6046 76.421 46.1747 76.4919 46.7447C76.5274 47.0297 76.5629 47.3148 76.5629 47.6354C76.4919 48.4905 76.4564 49.3812 76.4564 50.2363V50.4145C76.4564 57.6114 74.3977 63.3832 70.2803 67.8724C68.9314 69.2619 67.6891 70.5089 66.0208 71.5065C64.7075 72.2547 63.3232 72.8604 61.8679 73.3236ZM146.95 67.8724C142.833 72.3616 137.011 74.6062 129.557 74.6062C122.103 74.6062 116.353 72.3616 112.236 67.8724C108.118 63.4545 106.06 57.6114 106.06 50.4145V50.2363C106.06 49.0962 106.131 47.9917 106.202 46.9585C106.308 46.0678 106.45 45.1771 106.592 44.2507C106.698 43.5025 106.876 42.79 107.089 42.0774C108.083 38.5145 109.787 35.4149 112.2 32.7783C112.413 32.5646 112.591 32.3508 112.804 32.137C114.969 30.0706 117.56 28.4673 120.4 27.5053C120.648 27.3984 120.897 27.3272 121.145 27.2559C123.665 26.4721 126.505 26.0802 129.593 26.0446C132.504 26.1158 140.703 26.4008 146.844 32.7783C152.771 38.9064 152.949 46.8872 153.02 50.3076C153.055 52.5878 152.807 55.0462 152.345 57.3976C151.423 61.4593 149.612 64.9509 146.95 67.8724Z" fill="url(#paint0_linear)"/>
<path d="M178.329 29.6074C176.376 25.2607 173.856 21.2347 170.733 17.565C169.561 16.2111 168.319 14.9285 167.041 13.7171C161.859 9.12102 155.896 5.5938 149.364 3.27794C142.975 1.14023 136.267 0.0357491 129.523 0.0713776C122.423 -0.0355079 115.36 1.14023 108.651 3.5986C102.44 5.77194 96.6539 9.26353 91.791 13.7527C86.9636 18.2419 83.1656 23.5862 80.5035 29.6074C77.9123 36.1631 76.5635 43.1819 76.386 50.2007V50.3788C76.386 57.5758 74.3273 63.3476 70.2098 67.8368C68.861 69.2619 67.6187 70.5089 65.9149 71.5422L65.6664 71.6847C62.1879 73.6799 57.964 74.5706 52.9946 74.5706C45.5406 74.5706 39.7904 72.326 35.6019 67.8368C34.7855 66.9461 34.0756 66.0197 33.4367 65.0221L5.07593 72.8604C6.95718 76.8152 9.37086 80.4137 12.317 83.6559C12.7784 84.1903 13.9143 85.4373 15.4406 86.8268C20.3744 91.2447 26.0892 94.6651 32.3008 96.9809C36.9862 98.6911 41.8846 99.7599 46.8184 100.294C52.8526 100.936 58.9933 100.651 64.9565 99.4749C69.358 98.6555 73.5819 97.3016 77.6994 95.4489C79.8646 94.4513 81.4619 93.5606 81.9233 93.2755C85.2244 91.316 88.277 89.0714 91.0456 86.5061C103.079 75.0694 105.599 58.5021 105.741 54.298V54.0486C105.812 50.7351 106.096 47.4929 106.664 44.2507C107.267 40.6522 108.722 37.3032 110.887 34.346C113.372 31.2107 116.709 28.788 120.471 27.5053C123.346 26.4365 126.47 25.9733 129.523 26.0446C132.291 26.1158 140.668 26.294 146.915 32.7783C152.843 38.9064 153.02 46.8872 153.091 50.3076C153.162 53.5498 152.665 57.1126 151.743 60.1767C158.629 60.2836 165.444 59.3928 172.081 57.5758L181.31 62.35C182.127 58.5021 182.553 54.1911 182.553 50.2363C182.553 43.1819 181.204 36.1631 178.329 29.6074Z" fill="#CC0000"/>
<path d="M91.223 14.358C81.9942 22.9088 77.2023 35.2719 76.5279 47.7419C76.244 45.4973 76.0665 43.1458 75.2856 41.0081C74.5047 38.6566 73.2978 36.4833 71.9135 34.4524C64.779 23.8708 43.8722 23.2651 35.7438 32.8135C28.2543 40.2599 27.6154 56.2215 33.3656 65.0217L5.11133 72.8956C-4.25944 54.2619 -0.496931 28.0393 15.5115 13.8235C35.9213 -4.63203 71.1326 -4.56078 91.223 14.358Z" fill="#CC0000"/>
<path opacity="0.3" d="M91.223 14.358C81.9942 22.9088 77.2023 35.2719 76.5279 47.7419C76.244 45.4973 76.0665 43.1458 75.2856 41.0081C74.4337 38.4785 73.1204 36.0201 71.4876 33.918C64.211 23.8351 43.6592 23.4432 35.7438 32.8135C28.3253 40.2243 27.4379 56.3283 33.3656 65.0217C33.3301 65.0573 5.14682 72.86 5.11133 72.8956C-4.25944 54.2619 -0.496931 28.0393 15.5115 13.8235C35.9213 -4.63203 71.1326 -4.56078 91.223 14.358Z" fill="url(#paint1_linear)"/>
<path d="M115.821 138.595V116.576H120.4V124.842H120.542C120.755 124.415 121.039 123.952 121.43 123.488C121.82 123.025 122.317 122.633 122.92 122.313C123.524 121.992 124.305 121.849 125.228 121.849C126.434 121.849 127.535 122.17 128.564 122.776C129.593 123.417 130.374 124.343 131.013 125.59C131.617 126.837 131.936 128.441 131.936 130.329C131.936 132.182 131.652 133.714 131.049 134.996C130.445 136.279 129.664 137.205 128.635 137.882C127.641 138.524 126.505 138.844 125.228 138.844C124.34 138.844 123.595 138.702 122.956 138.417C122.352 138.132 121.82 137.74 121.43 137.312C121.039 136.849 120.72 136.421 120.542 135.958H120.329V138.595H115.821ZM120.294 130.365C120.294 131.362 120.436 132.217 120.684 132.93C120.968 133.678 121.359 134.213 121.855 134.64C122.352 135.032 122.991 135.246 123.737 135.246C124.482 135.246 125.121 135.032 125.618 134.64C126.115 134.213 126.541 133.642 126.789 132.93C127.073 132.182 127.18 131.362 127.18 130.4C127.18 129.438 127.038 128.619 126.789 127.871C126.541 127.158 126.15 126.588 125.618 126.16C125.121 125.769 124.482 125.555 123.737 125.555C122.991 125.555 122.352 125.769 121.855 126.16C121.359 126.552 120.968 127.122 120.684 127.835C120.436 128.512 120.294 129.367 120.294 130.365Z" fill="black"/>
<path d="M137.189 144.759C136.621 144.759 136.054 144.723 135.557 144.616C135.06 144.509 134.634 144.402 134.314 144.295L135.344 140.875C136.16 141.124 136.834 141.196 137.402 141.089C137.97 140.982 138.396 140.554 138.716 139.806L139 139.094L133.107 122.099H137.899L141.307 134.213H141.484L144.927 122.099L149.755 122.134L143.366 140.412C143.046 141.303 142.656 142.051 142.123 142.728C141.591 143.369 140.952 143.904 140.135 144.26C139.284 144.58 138.325 144.759 137.189 144.759Z" fill="black"/>
</g>
<defs>
<linearGradient id="paint0_linear" x1="-3.65681" y1="50.3468" x2="186.676" y2="50.3468" gradientUnits="userSpaceOnUse">
<stop stop-color="#F70300" stop-opacity="0"/>
<stop offset="0.32" stop-color="#7E0100" stop-opacity="0.61"/>
<stop offset="0.5" stop-color="#310000"/>
<stop offset="1" stop-color="#F70300" stop-opacity="0"/>
</linearGradient>
<linearGradient id="paint1_linear" x1="8.25274" y1="36.485" x2="177.799" y2="36.485" gradientUnits="userSpaceOnUse">
<stop stop-color="#F70300" stop-opacity="0"/>
<stop offset="0.32" stop-color="#7E0100" stop-opacity="0.61"/>
<stop offset="0.5" stop-color="#310000"/>
<stop offset="1" stop-color="#F70300" stop-opacity="0"/>
</linearGradient>
<clipPath id="clip0">
<rect width="330" height="178" fill="white"/>
</clipPath>
</defs>
</svg>
